<?xml version="1.0" encoding="UTF-8" standalone="no"?>
<svg
   version="1.0"
   width="361mm"
   height="626mm"
   viewBox="0 0 1023.3073 1774.476"
   preserveAspectRatio="xMidYMid meet"
   id="svg8"
   sodipodi:docname="ICONOBOTELLA2.svg"
   inkscape:version="1.1 (c68e22c387, 2021-05-23)"
   xmlns:inkscape="http://www.inkscape.org/namespaces/inkscape"
   xmlns:sodipodi="http://sodipodi.sourceforge.net/DTD/sodipodi-0.dtd"
   xmlns="http://www.w3.org/2000/svg"
   xmlns:svg="http://www.w3.org/2000/svg">
  <defs
     id="defs12" />
  <sodipodi:namedview
     id="namedview10"
     pagecolor="#ffffff"
     bordercolor="#666666"
     borderopacity="1.0"
     inkscape:pageshadow="2"
     inkscape:pageopacity="0.0"
     inkscape:pagecheckerboard="0"
     inkscape:document-units="pt"
     showgrid="false"
     inkscape:zoom="0.15234375"
     inkscape:cx="534.97436"
     inkscape:cy="1624.6154"
     inkscape:window-width="1366"
     inkscape:window-height="705"
     inkscape:window-x="-8"
     inkscape:window-y="-8"
     inkscape:window-maximized="1"
     inkscape:current-layer="svg8"
     units="mm" />
  <metadata
     id="metadata2">
Created by potrace 1.15, written by Peter Selinger 2001-2017
</metadata>
  <g
     transform="matrix(0.18554225,0,0,-0.17135817,-364.71618,1860.6082)"
     fill="#000000"
     stroke="none"
     id="g6"
     style="fill:#aa0000">
    <path
       d="m 4120,10819 c -187,-9 -280,-28 -307,-60 -6,-8 -16,-52 -22,-99 -6,-47 -15,-105 -20,-130 -16,-74 -13,-222 5,-266 19,-44 17,-179 -12,-1014 -27,-807 -33,-935 -45,-990 -20,-99 -68,-167 -227,-327 -256,-257 -368,-436 -419,-674 -16,-76 -18,-147 -18,-784 0,-1688 17,-4879 26,-5010 28,-379 86,-467 375,-563 214,-72 532,-114 842,-113 513,2 863,77 1013,218 54,51 88,126 116,258 21,103 23,495 4,995 -11,294 -11,677 -1,2223 12,1794 11,2224 -10,2607 -12,212 -20,249 -76,366 -61,128 -171,271 -349,453 -214,219 -236,266 -254,556 -25,379 -42,1637 -26,1897 6,99 3,135 -15,229 -29,151 -38,172 -91,197 -86,41 -180,47 -489,31 z"
       id="path4"
       style="fill:#aa0000" />
  </g>
</svg>
